<?xml version="1.0" encoding="utf-8"?>
<svg xmlns="http://www.w3.org/2000/svg" viewBox="0 0 345 133">
    <g class="header-logo-txt" style="fill: #fff; transition: fill .2s ease .2s;">
        <path d="M125.3 40.7l12.9-.1.1 15.1 12.2-15.2 14.5-.1L149 60l20.7 23.6H153l-14.6-17.1.2 17.2-12.9.1-.4-43.1zM196 67.9l-.3-27.9 12.1-.1.4 43.2-12.1.1v-3.9c-2.9 2.6-6.3 3.9-10.3 4-5.5 0-9.6-1.6-12.6-4.8-2.9-3.3-4.4-7.1-4.4-11.4l-.2-26.8 12.1-.1.2 23.7c0 2.9.8 5.1 2.2 6.7 1.4 1.6 3.6 2.4 6.5 2.4 2.5-.2 4.6-1.9 6.4-5.1zM214.5 42.8c15.5-8.5 28.2-1.7 31.3 1.1 3 2.8 4.6 7.1 4.6 12.9l.2 25.9-12.1.1v-3.4c-3.5 2.3-6.6 3.5-9.5 3.5-5.8.1-10.1-1.1-13-3.5-2.9-2.4-4.4-5.8-4.4-10.1 0-4 1.3-7.6 4-10.8 2.7-3.2 7.1-4.8 13.1-4.9 2.8 0 6 .8 9.5 2.5v-1.3c-.1-3.2-4.4-6.8-8.9-7-5.2 0-7.2.6-10.1 2.4l-4.7-7.4zm24 27.1s1.3-2.3 0-4.9c-1.3-2.4-3.7-3.5-8.2-3.2-5.2.3-8.2 2.4-8.1 6.1.1 3.4 3.1 5.5 8.2 5.5 4.2-.1 6.9-1.2 8.1-3.5zM261.9 77.2c-4.3-3.6-6.5-8.2-6.6-14v-4.3c-.1-5.7 2.1-10.4 6.3-14.1 4.3-3.6 9.3-5.5 15.1-5.5 6.9-.1 12.7 2.3 17.3 7.2l-8.6 6.6c-2.6-2.6-5.5-3.8-8.7-3.8-2.9 0-5.4 1.2-7.5 3.5-2.1 2.3-3.2 5.1-3.2 8.2 0 3.2 1.1 5.9 3.1 8.2 2 2.3 4.6 3.4 7.8 3.4s6-1.3 8.6-4l8.7 6.4c-4.6 4.9-10.3 7.4-17.2 7.5-5.7 0-10.7-1.7-15.1-5.3zM297.4 39.1l12.9-.1.1 15.1 12.2-15.2 14.5-.1-16 19.6L342 81.9l-16.8.1-14.6-17.1.2 17.2-12.9.1-.5-43.1z"/>
        <g>
            <path d="M126.6 110l-.2-22h4.5l7 9 6.8-9.2h4.5l.2 22h-4.6l-.1-13.1-6.8 8.5-6.9-8.3.1 13.1h-4.5zM150.7 102.2c0-2.2.7-4.1 2.1-5.5 1.4-1.4 3.2-2.2 5.5-2.2 2.2 0 4 .7 5.4 2.1 1.3 1.4 2 3.2 2 5.5v1.5l-10.5.1c.1.8.5 1.4 1.1 1.9.6.5 1.3.7 2.1.7 1.4 0 2.7-.4 3.8-1.3l2.5 2.4c-1.1 1.5-3.2 2.3-6.2 2.3-2.2 0-4.1-.7-5.5-2.1-1.6-1.4-2.3-3.2-2.3-5.4zm9.7-3.6c-.6-.4-1.3-.7-2.1-.7s-1.5.2-2.1.7c-.6.5-.9 1.1-.9 1.9l6.1-.1c0-.7-.4-1.3-1-1.8zM181.8 87.5l.2 22h-4.3v-1.2c-1.1.8-2.2 1.2-3.4 1.2-2.3 0-4.2-.7-5.6-2.2-1.4-1.5-2.1-3.3-2.1-5.3s.7-3.8 2-5.4c1.4-1.5 3.2-2.3 5.6-2.3 1.5.1 2.7.5 3.4 1.2l-.1-8h4.3zm-4.1 15.8v-2.5c-.2-1.7-1.3-2.7-3.2-3-2.4.2-3.8 1.5-4.1 3.8.1 2.8 1.5 4.3 4.2 4.4 1.8-.3 2.9-1.2 3.1-2.7zM184.5 89c.4-.4 1-.6 1.6-.6.7 0 1.3.2 1.7.6.4.4.6.9.6 1.5s-.2 1.1-.6 1.5c-.4.4-1 .6-1.7.6s-1.3-.2-1.7-.6c-.4-.4-.6-.9-.6-1.5.1-.6.3-1.1.7-1.5zm4 20.4l-.1-15.3h-4.3l.1 15.3h4.3zM190.8 96c1.9-1.2 4.2-1.9 6.7-1.9 1.8 0 3.3.5 4.4 1.5 1.1 1 1.6 2.5 1.6 4.6l.1 9.2h-4.3v-1.2c-1.2.8-2.3 1.2-3.3 1.2-2 0-3.6-.4-4.6-1.3-1-.9-1.5-2-1.6-3.6 0-1.4.5-2.7 1.4-3.8 1-1.1 2.5-1.7 4.7-1.7 1 0 2.1.3 3.4.9v-.5c0-1.1-.8-1.7-2.5-1.8-1.8 0-3.3.3-4.3 1l-1.7-2.6zm8.5 8.8v-1.7c-.4-.8-1.4-1.2-2.9-1.1-1.8.2-2.8.9-2.9 2.2.1 1.2 1.1 1.9 2.9 1.9 1.5-.1 2.5-.5 2.9-1.3zM218.7 106c-2.1-2.1-3.2-4.7-3.2-7.8 0-3.1 1-5.7 3.1-7.8 2.1-2.1 4.7-3.2 7.8-3.2 3.1 0 5.8.9 8.1 2.9l-2.9 3.2c-1.5-1.2-3.2-1.7-5.2-1.7s-3.6.7-4.8 1.9c-1.2 1.2-1.8 2.8-1.8 4.7 0 2 .7 3.7 1.9 4.8 1.2 1.2 2.8 1.8 4.8 1.8 1.6 0 2.8-.3 3.6-1V100h-2.9v-4.1l7.3-.1.1 10.3c-2.2 2-4.9 3-8.1 3-3.1 0-5.7-1-7.8-3.1zM241.1 95.4c1.1-1.1 2.4-1.7 4-1.7.5 0 1 0 1.4.1l-.6 4.2c-.5-.4-1.2-.7-2.1-.7-1 .1-1.9.8-2.6 2.3l.1 9.4H237l-.1-14.8 4.3-.5-.1 1.7zM248.7 106.8c-1.5-1.5-2.3-3.3-2.3-5.5s.7-4.1 2.2-5.6c1.5-1.5 3.3-2.3 5.5-2.3s4.1.7 5.6 2.2c1.5 1.5 2.3 3.3 2.3 5.5s-.7 4.1-2.2 5.6c-1.5 1.5-3.3 2.3-5.5 2.3s-4.1-.7-5.6-2.2zm5.6-1.5c1.2 0 2.1-.4 2.8-1.2.7-.8 1.1-1.8 1.1-2.9 0-1.2-.4-2.1-1.1-2.9-.7-.8-1.7-1.2-2.9-1.2s-2.1.4-2.8 1.2c-.7.8-1.1 1.8-1.1 2.9 0 1.2.4 2.1 1.1 2.9.8.8 1.7 1.2 2.9 1.2zM272.6 103.3l-.1-9.9h4.3l.1 15.3h-4.3v-1.4c-1 .9-2.2 1.4-3.7 1.4-1.9 0-3.4-.6-4.4-1.7-1-1.2-1.5-2.5-1.6-4l-.1-9.5h4.3l.1 8.4c0 1 .3 1.8.8 2.4.5.6 1.3.8 2.3.9.9-.2 1.7-.8 2.3-1.9zM279.1 115l-.2-21.2 4.3-.5v1.2c1.1-.8 2.2-1.2 3.3-1.3 2.3 0 4.2.7 5.6 2.2 1.4 1.5 2.1 3.3 2.1 5.3s-.6 3.8-2 5.4c-1.4 1.5-3.2 2.3-5.6 2.3-1.5-.1-2.6-.5-3.4-1.2l.1 7.7-4.2.1zm4.1-15.4s-.2.9 0 2.5 1.3 3 3.2 3c2.7-.1 4.1-1.5 4.1-3.8 0-3.1-1.5-4.5-4.2-4.4-2 0-2.9 1.1-3.1 2.7z"/>
        </g>
    </g>
    <path fill="#EF3C25" d="M114.1 89.3c0-4.1-.9-8.1-2.5-11.8-6.2-19.2-26.3-26.1-34.9-42.2 10.6 2.7 20.8-.9 23.6-8.8 2.6-7.2-2.1-15.7-10.6-20.5 0 0-10.3-5.5-21.4-2.1-15.4 4.8-12 17.9-9.8 23.3 3.3 8 10.3 17.4 14 23.2-4.6-.8-9.3-1.3-14.3-1.2-10.6.1-20.5 2.4-29 6.2-5.9 2.6-11 6.1-15.2 10-.9.9-1.9 1.9-2.7 2.8l-.4.4-.1.1C5.5 75 2.5 82.3 2.6 90.2c.2 22.3 25.3 40.2 56.1 39.9 10.2-.1 19.8-2.2 28-5.8.1 0 .2-.1.3-.1.3-.1.6-.3.9-.4l.6-.3c.1-.1.3-.1.4-.2 5.6-2.7 10.5-6.1 14.5-9.9v-.1c6.8-6.7 10.7-15 10.7-24z"/>
    <path fill="#EF3C25" d="M114.2 89.3c.2 22.5-24.8 41-55.7 41.2-31 .3-56.3-17.7-56.5-40.2-.2-22.5 24.7-41 55.7-41.2 31-.3 56.3 17.7 56.5 40.2z"/>
    <path fill="#FAAC1B" d="M2.2 90.2c.2 22.5 25.5 40.2 56.5 40.2 17.9 0 34.6-6.7 44.8-16.7 3.7-18.7-1.8-38.8-16.4-53.1-4.4-4.3-9.2-7.7-14.4-10.4C68 49.4 63 48.9 58 49 27 49.3 2 67.7 2.2 90.2z"/>
    <path fill="#E86F25" d="M19.2 76.9C10.1 86.2 7 98.5 9.6 110.4c9.8 12.1 27.9 20.3 48.7 20.1 4.4 0 8.7-.3 12.8-1.1.4-.3.9-.6 1.2-.9 14.3-14.6 13.8-37.7-.8-52-14.5-14.4-38-14.2-52.3.4z"/>
    <path fill="#B3529F" d="M35.2 67c-3.5 12.5-.2 26.6 9.7 36.3 10 9.8 24 12.8 36.5 9.1 3.5-12.6.2-26.6-9.7-36.3-10-9.8-24.1-12.8-36.5-9.1z"/>
    <path fill="#EF3C25" d="M29.9 118.7C15.2 104.3 9.7 84.1 13.5 65.3 6.3 72.2 2 80.9 2.1 90.2c.2 19 19.1 35.1 43.4 39.3-5.3-2.6-11.1-6.4-15.6-10.8zM100.8 27.3c-3.1 8.8-15.3 12.5-27.1 8.4C61.8 31.5 54.8 21 57.9 12.2 61 3.4 73.2-.3 85 3.9c11.8 4.1 18.9 14.6 15.8 23.4z"/>
    <path fill="#FAAC1B" d="M94.5 12.7c-1.2-2.6-2.9-4.8-4.8-6.7-1.5-.9-3.1-1.6-4.9-2.2-11.9-4.2-24-.5-27.1 8.3-3.1 8.8 4 19.3 15.8 23.5 7.3 2.6 14.6 2.2 20-.6 3.9-6.6 4.5-14.9 1-22.3z"/>
    <path fill="#E86F25" d="M66.6 10c-5.2 2.5-8.2 7.7-8.2 13.1 2.5 5.3 7.9 10 14.9 12.5 1.2.4 2.4.8 3.6 1 .7-.2 1.3-.5 1.9-.8 7.1-3.4 10.2-12 6.8-19.1-3.3-7.1-11.8-10.1-19-6.7z"/>
    <path fill="#B3529F" d="M84.7 31.2c2.8-4.1 3.5-9.5 1.2-14.4-2.3-4.8-7-7.7-11.9-8.1-2.8 4.1-3.5 9.5-1.2 14.4 2.3 4.8 6.9 7.7 11.9 8.1z"/>
    <path fill="#EF3C25" d="M64 27.2c-3.7-7.7-2.8-16.5 1.5-23.2-3.8 1.7-6.6 4.5-7.9 8.2-2.6 7.4 2 16 10.6 21.1-1.7-1.8-3.1-3.8-4.2-6.1z"/>
</svg>