<?xml version="1.0" encoding="utf-8"?>
<svg xmlns="http://www.w3.org/2000/svg" xmlns:xlink="http://www.w3.org/1999/xlink" preserveAspectRatio="xMidYMid" width="547" height="245" viewBox="0 0 547 245">
  <defs>
    <style>
      .cls-1 {
        fill: #fff;
        fill-rule: evenodd;
      }
    </style>
  </defs>
  <path d="M542.396,149.741 L534.921,133.847 L504.943,133.847 L497.468,149.741 L493.298,149.741 L493.298,149.269 L519.106,94.506 L520.916,94.506 L546.488,149.269 L546.488,149.741 L542.396,149.741 ZM519.972,101.037 L506.281,130.385 L533.584,130.385 L519.972,101.037 ZM514.464,55.320 L495.502,55.320 L495.502,0.242 L514.464,0.242 C530.909,0.242 541.137,12.674 541.137,27.781 C541.137,43.124 530.830,55.320 514.464,55.320 ZM514.385,3.940 L499.514,3.940 L499.514,51.622 L514.307,51.622 C528.233,51.622 537.203,41.236 537.203,27.860 C537.203,14.562 528.312,3.940 514.385,3.940 ZM428.916,231.573 C434.896,231.573 439.617,228.819 441.112,222.839 L454.960,222.839 C452.836,238.497 440.640,244.713 428.916,244.713 C414.832,244.713 400.748,235.271 400.748,216.702 C400.748,197.740 414.832,188.534 428.916,188.534 C440.246,188.534 452.678,194.671 454.803,209.385 L440.955,209.385 C438.987,203.720 434.817,201.517 428.916,201.517 C420.576,201.517 415.147,207.496 415.147,216.624 C415.147,224.570 420.497,231.573 428.916,231.573 ZM401.001,0.242 L435.385,0.242 L435.385,12.753 L415.400,12.753 L415.400,20.621 L433.812,20.621 L433.812,33.210 L415.400,33.210 L415.400,42.180 L436.094,42.180 L436.094,55.320 L401.001,55.320 L401.001,0.242 ZM392.458,106.308 L392.458,94.663 L419.604,94.663 L419.604,106.308 L413.230,106.308 L413.230,138.096 L420.233,138.096 L420.233,149.741 L391.829,149.741 L391.829,138.096 L398.832,138.096 L398.832,106.308 L392.458,106.308 ZM304.280,197.661 L304.673,216.466 L304.673,244.162 L300.660,244.162 L300.660,189.006 L302.234,189.006 L339.923,235.350 L339.529,215.365 L339.529,189.006 L343.542,189.006 L343.542,244.162 L342.205,244.162 L304.280,197.661 ZM322.802,55.320 L318.868,55.320 L318.868,3.862 L300.771,3.862 L300.771,0.242 L340.899,0.242 L340.899,3.862 L322.802,3.862 L322.802,55.320 ZM281.532,149.741 L262.570,149.741 L262.570,94.663 L281.532,94.663 C297.977,94.663 308.205,107.095 308.205,122.202 C308.205,137.545 297.898,149.741 281.532,149.741 ZM281.453,98.362 L266.582,98.362 L266.582,146.043 L281.375,146.043 C295.301,146.043 304.271,135.657 304.271,122.281 C304.271,108.984 295.380,98.362 281.453,98.362 ZM219.569,43.675 L226.571,43.675 L226.571,11.887 L220.198,11.887 L220.198,0.242 L247.344,0.242 L247.344,11.887 L240.970,11.887 L240.970,43.675 L247.973,43.675 L247.973,55.320 L219.569,55.320 L219.569,43.675 ZM246.351,201.595 L226.365,201.595 L226.365,209.463 L244.777,209.463 L244.777,222.053 L226.365,222.053 L226.365,231.022 L247.059,231.022 L247.059,244.162 L211.966,244.162 L211.966,189.085 L246.351,189.085 L246.351,201.595 ZM147.566,94.663 L181.950,94.663 L181.950,107.174 L161.965,107.174 L161.965,115.042 L180.377,115.042 L180.377,127.631 L161.965,127.631 L161.965,136.601 L182.658,136.601 L182.658,149.741 L147.566,149.741 L147.566,94.663 ZM115.955,8.819 L116.348,27.624 L116.348,55.320 L112.335,55.320 L112.335,0.164 L113.909,0.164 L151.598,46.507 L151.204,26.522 L151.204,0.164 L155.217,0.164 L155.217,55.320 L153.879,55.320 L115.955,8.819 ZM129.740,188.298 C140.834,188.298 150.040,192.940 153.974,203.956 L149.962,203.956 C146.264,195.379 139.103,191.996 129.662,191.996 C115.577,192.232 106.450,202.618 106.450,216.466 C106.450,230.550 115.341,241.172 129.662,241.172 C142.802,241.172 151.614,232.360 152.479,219.377 L130.763,219.377 L130.763,215.915 L156.414,215.915 C156.414,220.951 155.784,225.593 153.974,229.764 C149.883,239.441 141.071,244.949 129.662,244.949 C113.689,244.949 102.516,233.068 102.516,216.466 C102.516,200.022 114.082,188.298 129.740,188.298 ZM54.343,104.499 L34.200,133.611 L33.413,133.611 L13.192,104.499 L13.192,149.741 L9.179,149.741 L9.179,94.585 L10.832,94.585 L33.807,127.631 L56.703,94.585 L58.356,94.585 L58.356,149.741 L54.343,149.741 L54.343,104.499 ZM29.243,56.028 C17.598,56.028 6.819,49.497 6.819,37.144 L6.819,0.242 L21.218,0.242 L21.218,36.830 C21.218,41.393 25.230,43.360 29.322,43.360 C33.177,43.360 37.269,41.393 37.269,36.830 L37.269,0.242 L51.510,0.242 L51.510,37.144 C51.510,49.497 40.810,56.028 29.243,56.028 ZM32.312,188.534 L57.333,242.195 L57.333,244.162 L42.462,244.162 L39.236,237.317 L18.621,237.317 L15.474,244.162 L0.446,244.162 L0.446,242.195 L25.703,188.534 L32.312,188.534 ZM34.672,225.279 L28.929,211.981 L23.263,225.279 L34.672,225.279 ZM523.748,217.017 L523.905,217.017 L541.845,189.085 L546.094,189.085 L546.094,189.636 L525.794,221.266 L525.794,244.162 L521.860,244.162 L521.860,221.266 L501.481,189.557 L501.481,189.085 L505.808,189.085 L523.748,217.017 Z" class="cls-1"/>
</svg>